<svg width="14" height="14" viewBox="0 0 14 14" fill="none" xmlns="http://www.w3.org/2000/svg">
<path d="M9.33334 4.66667C10.2616 4.66667 11.1518 5.03542 11.8082 5.6918C12.4646 6.34818 12.8333 7.23841 12.8333 8.16667V12.25H10.5V8.16667C10.5 7.85725 10.3771 7.56051 10.1583 7.34171C9.9395 7.12292 9.64276 7.00001 9.33334 7.00001C9.02392 7.00001 8.72717 7.12292 8.50838 7.34171C8.28959 7.56051 8.16667 7.85725 8.16667 8.16667V12.25H5.83334V8.16667C5.83334 7.23841 6.20208 6.34818 6.85846 5.6918C7.51484 5.03542 8.40508 4.66667 9.33334 4.66667Z" fill="#101010"/>
<path d="M1.16667 5.25H3.5V12.25H1.16667V5.25Z" fill="#101010"/>
<path d="M2.33333 3.50001C2.97767 3.50001 3.5 2.97767 3.5 2.33334C3.5 1.68901 2.97767 1.16667 2.33333 1.16667C1.689 1.16667 1.16667 1.68901 1.16667 2.33334C1.16667 2.97767 1.689 3.50001 2.33333 3.50001Z" fill="#101010"/>
</svg>
