<svg width="14" height="14" viewBox="0 0 14 14" fill="none" xmlns="http://www.w3.org/2000/svg">
<path d="M13.4167 1.75C12.8581 2.14403 12.2396 2.4454 11.585 2.6425C11.2337 2.23855 10.7668 1.95224 10.2474 1.82229C9.7281 1.69234 9.18137 1.72503 8.68122 1.91593C8.18106 2.10683 7.75159 2.44673 7.45091 2.88967C7.15022 3.3326 6.99283 3.85719 7 4.3925V4.97583C5.97487 5.00241 4.95908 4.77506 4.04309 4.31401C3.1271 3.85296 2.33935 3.17254 1.75 2.33333C1.75 2.33333 -0.583331 7.58333 4.66667 9.91667C3.46531 10.7321 2.03418 11.141 0.583336 11.0833C5.83333 14 12.25 11.0833 12.25 4.375C12.2495 4.21251 12.2338 4.05043 12.2033 3.89083C12.7987 3.3037 13.2188 2.56241 13.4167 1.75Z" fill="#101010"/>
</svg>
